<svg width="18" height="18" xmlns="http://www.w3.org/2000/svg" fill="none" aria-hidden="true">
 <g>
  <path id="svg_1" fill="#0F0F0F" d="m15.06594,5.29199c0,-1.25369 -1.00574,-2.27002 -2.24647,-2.27002l-5.99058,0c-1.24069,0 -2.24647,1.01632 -2.24647,2.27002l0,9.08006c0,1.25373 1.00578,2.27002 2.24647,2.27002l5.99058,0c1.24072,0 2.24647,-1.01629 2.24647,-2.27002l0,-9.08006zm-1.49765,0c0,-0.41789 -0.33525,-0.75667 -0.74882,-0.75667l-5.99058,0c-0.41356,0 -0.74882,0.33878 -0.74882,0.75667l0,9.08006c0,0.41791 0.33526,0.75667 0.74882,0.75667l5.99058,0c0.41357,0 0.74882,-0.33876 0.74882,-0.75667l0,-9.08006z" clip-rule="evenodd" fill-rule="evenodd"/>
  <path id="svg_2" fill="#0F0F0F" d="m4.13187,1.96738l6.7033,0c0.37022,0 0.67033,-0.31496 0.67033,-0.70347c0,-0.38851 -0.30011,-0.70347 -0.67033,-0.70347l-6.7033,0c-1.11064,0 -2.01099,0.94487 -2.01099,2.11041l0,9.8486c0,0.38853 0.30012,0.70347 0.67033,0.70347c0.37021,0 0.67033,-0.31494 0.67033,-0.70347l0,-9.8486c0,-0.38851 0.30012,-0.70347 0.67033,-0.70347z"/>
 </g>
</svg>