<svg width="18" height="18" xmlns="http://www.w3.org/2000/svg" fill="#000000" aria-hidden="true">
 <g>
  <title>Layer 1</title>
  <path d="m12.73722,1.39838l0,4.59235c0,0.33767 -0.26422,0.64158 -0.62753,0.64158l-7.03501,0c-0.33028,0 -0.62753,-0.27013 -0.62753,-0.64158l0,-4.59235l-1.32113,0c-0.72662,0 -1.32113,0.60782 -1.32113,1.35069l0,12.15623c0,0.74288 0.59451,1.35069 1.32113,1.35069l11.89015,0c0.72662,0 1.32113,-0.60782 1.32113,-1.35069l0,-11.07568l-2.37804,-2.43125l-1.22205,0l0.00001,0.00001zm2.31198,12.86534c0,0.33767 -0.26422,0.64158 -0.62753,0.64158l-10.66811,0c-0.33028,0 -0.62753,-0.27013 -0.62753,-0.64158l0,-5.63914c0,-0.33767 0.26422,-0.64158 0.62753,-0.64158l10.66811,0c0.33028,0 0.62753,0.27013 0.62753,0.64158l0,5.63914z" id="svg_1"/>
  <g id="svg_2">
   <path d="m9.40542,5.19156c0,0.35278 0.14178,0.67028 0.33672,0.67028l0.81523,0c0.17722,0 0.33672,-0.28223 0.33672,-0.67028l0,-3.38668l-1.47096,0l-0.01772,3.38668l0,0l0.00001,0z" id="svg_3"/>
  </g>
 </g>

</svg>